<svg width="36" height="38" viewBox="0 0 36 38" fill="none" xmlns="http://www.w3.org/2000/svg">
<path d="M12.5712 35.6693V29.8597C12.5712 28.3766 13.7789 27.1744 15.2686 27.1744H20.7144C21.4298 27.1744 22.1159 27.4573 22.6218 27.9609C23.1277 28.4645 23.4119 29.1475 23.4119 29.8597V35.6693C23.4074 36.2859 23.6502 36.8787 24.0866 37.3163C24.523 37.7539 25.1167 38 25.7361 38H29.4515C31.1867 38.0044 32.8524 37.3214 34.081 36.1015C35.3095 34.8816 36 33.2252 36 31.4978V14.947C36 13.5517 35.3787 12.2281 34.3035 11.3329L21.6645 1.28415C19.4659 -0.477733 16.3158 -0.420846 14.1828 1.41926L1.83223 11.3329C0.706245 12.2017 0.033257 13.5292 0 14.947V31.481C0 35.0813 2.93188 38 6.54854 38H10.1791C11.4655 38 12.5109 36.9668 12.5203 35.6862L12.5712 35.6693Z" fill="#212B32"/>
</svg>
