<svg width="36" height="38" viewBox="0 0 36 38" fill="none" xmlns="http://www.w3.org/2000/svg">
<path d="M19.359 0C20.7918 0 22.0892 0.798 22.8056 1.976C23.1542 2.546 23.3865 3.249 23.3285 3.99C23.2897 4.56 23.464 5.13 23.7738 5.662C24.7613 7.277 26.9494 7.885 28.6534 6.973C30.5704 5.871 32.9908 6.536 34.0945 8.417L35.3919 10.659C36.5149 12.54 35.8953 14.953 33.959 16.036C32.3131 17.005 31.7322 19.152 32.7197 20.786C33.0295 21.299 33.3781 21.736 33.9202 22.002C34.598 22.363 35.1208 22.933 35.4887 23.503C36.2051 24.681 36.147 26.125 35.4499 27.398L34.0945 29.678C33.3781 30.894 32.042 31.654 30.6672 31.654C29.9895 31.654 29.2343 31.464 28.6147 31.084C28.1112 30.761 27.5303 30.647 26.9107 30.647C24.9937 30.647 23.3865 32.224 23.3285 34.105C23.3285 36.29 21.547 38 19.3202 38H16.6868C14.4407 38 12.6592 36.29 12.6592 34.105C12.6205 32.224 11.0133 30.647 9.09635 30.647C8.45736 30.647 7.87646 30.761 7.39237 31.084C6.77274 31.464 5.99821 31.654 5.33985 31.654C3.94569 31.654 2.60961 30.894 1.89317 29.678L0.55709 27.398C-0.159356 26.163 -0.198083 24.681 0.518363 23.503C0.828178 22.933 1.40908 22.363 2.06744 22.002C2.60961 21.736 2.95815 21.299 3.28733 20.786C4.2555 19.152 3.6746 17.005 2.02871 16.036C0.111732 14.953 -0.507897 12.54 0.595817 10.659L1.89317 8.417C3.01624 6.536 5.4173 5.871 7.35364 6.973C9.03826 7.885 11.2263 7.277 12.2139 5.662C12.5237 5.13 12.6979 4.56 12.6592 3.99C12.6205 3.249 12.8335 2.546 13.2014 1.976C13.9178 0.798 15.2152 0.038 16.6287 0H19.359ZM18.0229 13.642C14.9828 13.642 12.5237 16.036 12.5237 19.019C12.5237 22.002 14.9828 24.377 18.0229 24.377C21.0629 24.377 23.464 22.002 23.464 19.019C23.464 16.036 21.0629 13.642 18.0229 13.642Z" fill="#212B32"/>
</svg>
