<?xml version="1.0" encoding="UTF-8" standalone="no"?> <svg xmlns="http://www.w3.org/2000/svg" width="106.48" height="45" viewBox="0 0 106.48 45"><defs><style>.cls-1{fill:#ffcb1e;}</style></defs><title>Asset 57</title><g id="Layer_2" data-name="Layer 2"><g id="Icons"><g id="Special_machinery" data-name="Special machinery"><g id="Garbage_truck" data-name="Garbage truck"><polygon class="cls-1" points="19.48 5 0.48 36 5.48 40 16.48 40 20.48 29 72.48 29 72.48 1 30.48 1 19.48 5"/><path class="cls-1" d="M101.48,6h-24V29h5a12.61,12.61,0,0,1,5-1c3.9.14,6.74,2.08,9,5h9V19Zm.41,14H93.76a.57.57,0,0,1-.45-.23A7,7,0,0,0,88,17a.57.57,0,0,1-.55-.57V10.51A.51.51,0,0,1,88,10H99.1a.52.52,0,0,1,.49.36l2.72,9.07A.45.45,0,0,1,101.89,20Z"/><path d="M27.48,34a4,4,0,1,0,4,4A4,4,0,0,0,27.48,34Zm0,7a3,3,0,1,1,3-3A3,3,0,0,1,27.48,41Z"/><path d="M42.48,34a4,4,0,1,0,4,4A4,4,0,0,0,42.48,34Zm0,7a3,3,0,1,1,3-3A3,3,0,0,1,42.48,41Z"/><path d="M87.48,34a4,4,0,1,0,4,4A4,4,0,0,0,87.48,34Zm0,7a3,3,0,1,1,3-3A3,3,0,0,1,87.48,41Z"/><path d="M101.89,20.5H93.77a1.07,1.07,0,0,1-.85-.43A6.47,6.47,0,0,0,88,17.52a1.07,1.07,0,0,1-1-1.07V10.51a1,1,0,0,1,1-1H99.1a1,1,0,0,1,1,.72l2.72,9.07a.91.91,0,0,1-.14.83A1,1,0,0,1,101.89,20.5ZM88,10.5h0v5.94c0,.05,0,.07.09.07a7.48,7.48,0,0,1,5.64,2.95l8.18,0-2.78-9Z"/><path d="M106.48,20.41a10.48,10.48,0,0,0-.45-3.05L102.77,6.78A2.5,2.5,0,0,0,100.36,5H79a2.52,2.52,0,0,0-2.52,2.52V28h-3V2.66A2.66,2.66,0,0,0,70.82,0H30.94a1.54,1.54,0,0,0-.5.08l-.08,0L19.84,3.81a3.13,3.13,0,0,0-1.6,1.29L.38,34.24A2.66,2.66,0,0,0,1,37.69l3.42,2.73A2.65,2.65,0,0,0,6.06,41h9.27a2.63,2.63,0,0,0,2.48-1.75L17.9,39h2.66A7,7,0,0,0,34.4,39h1.16A7,7,0,0,0,49.4,39h7.45a2.57,2.57,0,0,0,2.24-1.3l1-1.7H72.78a1.42,1.42,0,0,1,.78.22l4,2.36A3,3,0,0,0,79,39h1.54A7,7,0,0,0,94.4,39h10.92a1.16,1.16,0,0,0,1.16-1.16Zm-28-12.89A.52.52,0,0,1,79,7h21.36a.53.53,0,0,1,.5.36L104.11,18a8.2,8.2,0,0,1,.37,2.46V32h-8a.73.73,0,0,1-.55-.33A10,10,0,0,0,83.15,28H78.48ZM31.19,2H70.82a.67.67,0,0,1,.66.66V28H21.85ZM16.49,37h0v0l-.55,1.54a.64.64,0,0,1-.6.42H6.06a.63.63,0,0,1-.4-.14L2.24,36.12a.63.63,0,0,1-.15-.83L20,6.15a1.06,1.06,0,0,1,.55-.45l8.28-2.92Zm11,6a5,5,0,1,1,5-5A5,5,0,0,1,27.48,43Zm15,0a5,5,0,1,1,5-5A5,5,0,0,1,42.48,43Zm45,0a5,5,0,1,1,5-5A5,5,0,0,1,87.48,43Zm17-6H94.4a7,7,0,0,0-13.84,0H79a1,1,0,0,1-.48-.13L75,34.71A5.08,5.08,0,0,0,72.37,34H60.66A3,3,0,0,0,58,35.53L57.2,37H49.4a7,7,0,0,0-13.84,0H34.4a7,7,0,0,0-13.84,0H18.62l2.51-7H47.25a10.18,10.18,0,0,1,2.82,2.57,1,1,0,0,0,.81.43,1,1,0,0,0,.79-1.61A11.48,11.48,0,0,0,50.46,30H80.34a10.7,10.7,0,0,0-1.26,1.57A1,1,0,0,0,79.47,33a1,1,0,0,0,1.28-.35,8,8,0,0,1,13.5.07A2.81,2.81,0,0,0,96.63,34h7.85Z"/></g></g></g></g></svg>